
<!-- Uploaded to: SVG Repo, www.svgrepo.com, Transformed by: SVG Repo Mixer Tools -->
<svg width="800px" height="800px" viewBox="-53.92 -569.979 1503 1503" xmlns="http://www.w3.org/2000/svg" xmlns:xlink="http://www.w3.org/1999/xlink" fill="#ffffff" stroke="#ffffff">

<g id="SVGRepo_bgCarrier" stroke-width="0"/>

<g id="SVGRepo_tracerCarrier" stroke-linecap="round" stroke-linejoin="round"/>

<g id="SVGRepo_iconCarrier">


<path d="M345.599 362.905c-24.248-3.529-45.456-13.793-61.651-29.836-13.509-13.381-22.268-28.096-28.724-48.258-10.081-31.48-10.084-71.953-.01-102.791 9.764-29.885 31.748-55.899 58.653-69.405 37.26-18.704 89.702-17.529 124.212 2.783 31.057 18.28 49.869 50.762 55.104 95.14 1.598 13.549.561 42.169-1.956 53.982-10.302 48.354-40.304 82.131-84.26 94.861-4.737 1.371-12.082 2.977-16.322 3.566-8.973 1.249-36.361 1.223-45.046-.042zm52.48-3.733c17.744-4.143 31.89-10.465 44.533-19.908 30.755-22.969 47.606-58.188 49.162-102.744 1.534-43.924-11.713-81.367-37.328-105.509-20.793-19.597-46.996-28.991-80.867-28.991-35.904 0-64.819 11.132-87.065 33.521-23.83 23.981-36.435 57.436-36.435 96.7 0 40.733 11.389 73.615 33.474 96.652 12.176 12.701 24.029 20.32 41.026 26.365 6.01 2.139 10.432 3.166 26.5 6.152 1.375.256 10.601.303 20.5.105 13.402-.266 20.172-.866 26.5-2.343zm-37.943-14.211c-16.426-7.451-28.074-30.102-33.911-65.941-3.701-22.719-4.051-73.243-.679-98 4.736-34.766 14.739-55.305 30.315-62.243 10.677-4.756 25.473-1.942 34.986 6.653 21.129 19.088 31.793 73.369 27.191 138.402-3.302 46.668-13.43 71.979-32.321 80.775-6.847 3.19-18.961 3.356-25.581.354zm21.74-1.472c7.084-2.104 15.82-10.297 20.479-19.205 9.617-18.389 13.912-45.583 14.019-88.764.133-54.116-8.351-88.552-26.257-106.582-7.519-7.572-12.851-9.923-22.465-9.908-21.337.034-34.879 22.309-40.229 66.169-2.459 20.162-2.472 68.193-.023 85.82 7.578 54.554 27.147 80.585 54.476 72.47zm393.204 19.404c-9.921-1.006-40.237-6.051-50.827-8.459l-7.326-1.666.571-39.123c1.376-94.195 1.549-145.617.658-195.625-.872-48.988-1.126-54.167-3.016-61.414-2.394-9.182-5.849-15.586-10.004-18.545-1.614-1.149-6-2.778-9.746-3.62-12.451-2.797-11.775-2.349-12.107-8.029-.191-3.272.163-5.434 1-6.097 1.122-.89 103.25-20.37 106.503-20.315.935.016 1.067 13.074.588 58.021-.34 31.9-.384 58-.097 58 .286 0 4.018-1.616 8.293-3.591 12.885-5.953 24.761-8.536 42.01-9.138 11.483-.4 16.804-.149 22.695 1.069 38.523 7.971 67.031 39.502 76.993 85.159 2.599 11.91 3.565 41.512 1.841 56.338-1.471 12.637-5.667 29.664-10.033 40.713-16.477 41.695-51.826 68.896-98.722 75.965-10.802 1.627-44.723 1.832-59.274.357zm56.5-2.385c30.377-4.555 52.659-14.988 71.529-33.488 27.276-26.742 40.414-64.484 38.639-111-.914-23.948-4.825-39.592-14.751-59-13.447-26.292-36.445-44.735-62.559-50.166-19.588-4.074-44.791-.883-63.953 8.097-4.775 2.238-9.347 4.069-10.158 4.069-1.288 0-1.428-7.405-1.1-58.328l.376-58.328-4.012.804c-2.207.442-24.712 4.636-50.012 9.319-25.301 4.683-46.987 8.746-48.193 9.028-1.833.43-2.154 1.128-1.958 4.26.219 3.489.506 3.805 4.192 4.616 12.678 2.789 14.935 3.783 19.648 8.652 5.773 5.965 8.382 13.581 10.093 29.477 1.364 12.666 1.666 230.888.364 263.099l-.771 19.1 10.312 2.205c39.048 8.35 77.971 11.235 102.314 7.584zm-35.674-15.213c-2.021-.213-4.184-1-4.805-1.748-1.714-2.066-3.57-137.812-2.428-177.527l.906-31.5 8-2.307c11.803-3.402 24.51-2.874 33.518 1.396 18.09 8.573 29.975 29.75 36.146 64.411 2.011 11.291 1.713 50.504-.488 64.459-4.598 29.137-12.963 51.623-24.607 66.152-5.646 7.041-15.021 13.703-22.352 15.881-4.728 1.405-14.865 1.737-23.89.783zm19.252-2.289c7.265-1.379 12.908-4.27 18.968-9.719 15.187-13.652 26.605-41.842 31.096-76.768 1.829-14.225 1.583-46.639-.444-58.512-5.483-32.111-17.267-53.216-34.456-61.714-7.13-3.525-8.229-3.773-16.688-3.773-6.049 0-11.252.647-15.677 1.951l-6.623 1.951-.488 36.549c-.627 46.818.896 164.029 2.175 167.392.815 2.146 1.714 2.602 5.763 2.92 9.529.749 11.105.721 16.374-.277zm247.422 19.391c-49.611-8.947-85.091-44.129-96.684-95.869-1.491-6.654-2.15-14.102-2.524-28.508-.592-22.791 1.262-36.938 7.144-54.516 11.294-33.75 31.534-57.666 60.936-72 31.033-15.129 73.461-16.12 100.925-2.357 30.922 15.496 49.116 46.437 53.732 91.373.622 6.051.981 13.25.801 16l-.329 5-74 .256-74 .257.281 8.743c.654 20.254 5.008 38.17 13.063 53.744 3.661 7.08 6.575 10.939 13.655 18.086 15.992 16.148 31.902 22.398 57 22.398 18.197 0 31.283-3.631 44.97-12.479 3.833-2.479 7.718-4.506 8.631-4.506 2.089 0 6.899 6.191 6.899 8.881 0 4.408-14.348 18.617-28.342 28.07-11.461 7.742-29.638 14.754-45.399 17.51-11.038 1.933-35.835 1.888-46.759-.083zm44.472-1.922c23.17-3.756 45.987-14.877 62.386-30.406 8.983-8.506 11.962-12.611 10.713-14.762-3.333-5.738-3.189-5.732-11.7-.504-13.553 8.324-20.346 10.621-36.268 12.254-18.598 1.908-35.752-1.199-51.604-9.35-10.516-5.408-23.117-17.844-29.416-29.029-8.595-15.266-13.259-33.096-14.649-56.011-.584-9.622-.458-12.019.673-12.735.77-.487 34.115-.889 74.643-.896l73.25-.016v-2.894c0-6.577-2.159-24.257-4.094-33.524-7.781-37.27-28.324-63.845-57.616-74.535-11.659-4.255-22.688-6.046-37.225-6.046-34.442 0-62.571 11.297-84.331 33.87-17.35 17.997-27.643 38.214-33.925 66.63-1.894 8.564-2.211 13.016-2.211 31 0 17.852.324 22.457 2.159 30.714 11.661 52.45 46.167 86.991 95.742 95.839 12.563 2.241 31.077 2.413 43.473.401zm-70.326-158.219c-.753-1.217 1.113-19.016 2.961-28.236 4.451-22.223 11.578-38.27 21.387-48.151 5.275-5.315 7.682-6.972 11.984-8.25 2.961-.879 6.314-1.596 7.453-1.593 4.588.012 10.002 2.354 14.032 6.068 10.816 9.97 17.005 31.379 18.231 63.07l.605 15.643-10.4.58c-20.876 1.163-65.708 1.752-66.253.869zm57.252-2.857l17.398-.605-.627-12.359c-2.208-43.579-12.873-67.395-30.17-67.375-18.799.021-33.822 24.189-40.068 64.461-.768 4.95-1.404 10.82-1.414 13.045l-.018 4.045 18.75-.303c10.313-.169 26.58-.577 36.149-.909zm168.602 163.969c-17.816-1.91-46.17-8.117-55.611-12.176l-4.611-1.98-.629-22.846c-.346-12.564-.744-29.365-.886-37.333l-.258-14.487 2.764-1.325c1.52-.728 4.587-1.409 6.817-1.513l4.053-.188 3.453 8.5c13.473 33.16 29.274 51.039 49.912 56.477 7.873 2.076 22.635 2.094 28.463.035 16.326-5.762 25.279-18.125 25.357-35.012.092-20-10.901-29.609-52.432-45.832-25.73-10.051-34.706-15.223-45.393-26.162-11.529-11.801-17.062-25.232-18.101-43.941-1.255-22.606 5.819-41.664 21.498-57.903 15.777-16.343 36.259-25.201 64.161-27.747 24.57-2.242 62.285 2.969 82.046 11.336l3.605 1.526.643 20.362c.354 11.199.72 26.211.813 33.361l.17 12.999-4.842 1.798c-7.654 2.842-8.158 2.486-12.416-8.796-11.936-31.624-25.803-46.587-47.41-51.158-13.168-2.786-24.168.209-32.164 8.757-6.237 6.668-8.671 12.59-9.26 22.534-.64 10.774 1.286 16.598 7.869 23.801 8.113 8.878 21.406 16.541 47.887 27.607 32.434 13.553 47.908 25.059 56.321 41.875 5.464 10.922 7.011 19.645 6.462 36.436-.413 12.6-.816 15.189-3.683 23.648-9.346 27.58-30.442 45.738-63.034 54.252-11.039 2.883-12.615 3.031-34.566 3.273-12.649.136-24.799.058-26.998-.178zm47.5-2.803c42.486-6.451 69.918-29.234 77.113-64.045 3.475-16.809 1.854-35.5-4.164-48-8.424-17.5-22.668-28.064-57.949-42.98-26.203-11.078-41.91-20.469-48.344-28.903-5.314-6.967-7.041-12.324-6.971-21.616.107-14.016 5.42-24.75 15.562-31.443 8.491-5.604 19.132-6.971 31.521-4.049 14.971 3.53 26.23 12.719 36.398 29.708 3.235 5.406 9.888 20.583 13.127 29.948.503 1.453 1.082 1.514 4.574.483 2.199-.649 4.307-1.489 4.685-1.867.378-.377.353-14.703-.056-31.835l-.741-31.148-3.628-1.537c-6.123-2.592-22.104-6.939-32.629-8.876-7.92-1.457-14.888-1.834-33.5-1.813-22.217.024-24.03.169-33.206 2.659-26.653 7.231-46.413 22.272-56.739 43.188-5.488 11.116-7.385 19.685-7.322 33.083.088 19.023 5.272 33.066 16.736 45.334 9.863 10.557 22.688 18.089 44.531 26.154 17.189 6.347 34.934 15.21 41.658 20.807 3.953 3.289 7.059 7.036 9.374 11.312 3.294 6.08 3.464 6.883 3.466 16.393 0 9.162-.264 10.562-3.172 16.701-7.6 16.039-22.8 24.002-42.711 22.375-27.055-2.213-46.1-20.104-61.607-57.872-4.045-9.852-4.321-10.056-10.471-7.718l-2.822 1.073.705 35.22c.627 31.26.896 35.365 2.384 36.508 4.446 3.408 33.229 10.24 53.196 12.625 15.502 1.85 39.281 1.912 51.002.131zM1.329 357.358c-.831-.336-1.25-2.828-1.25-7.441 0-8.287-.527-7.916 15.5-10.889 12.294-2.281 16.691-4.613 22.12-11.73 10.525-13.801 12.8-40.371 12.824-149.777.022-102.746-1.958-124.36-12.843-140.24-4.83-7.045-12.969-10.871-26.602-12.503l-10.5-1.257-.288-8.198L0 7.126l3.29-.586c1.81-.322 65.377-.458 141.262-.303l137.973.284.646 4c.356 2.2.94 24.766 1.298 50.146l.65 46.146-7.113 2.161c-10.708 3.252-10.644 3.292-15.461-9.454-11.832-31.308-25.4-49.348-43.966-58.458-12.805-6.283-18.725-7.042-54.886-7.042h-31.47l-.543 5.25c-1.018 9.845-2.623 73.176-2.612 103l.011 29.75 9.25-.053c5.088-.029 15.12-.403 22.294-.832 10.783-.645 13.988-1.217 18.5-3.306 11.085-5.132 18.626-16.426 23.247-34.816l2.385-9.494 8.162-.291 8.162-.291V243.1l-8.165-.291-8.165-.291-2.318-9.5c-4.354-17.85-12.735-30.628-23.091-35.209-4.783-2.115-16.617-3.318-39.511-4.014l-10.75-.328v22.572c0 24.596 1.353 57.871 3.086 75.93 2.416 25.176 8.85 39.086 20.403 44.121 2.206.961 9.187 2.521 15.511 3.469 6.325.947 12.288 2.129 13.25 2.627 2.441 1.26 2.585 14.299.169 15.225-1.892.728-178.367.673-180.169-.053zm179.75-7.838c0-3.025-.27-5.5-.6-5.5-4.766 0-26.969-4.787-30.538-6.584-12.698-6.395-18.568-21.592-20.846-53.969-1.619-23.016-3.23-90.633-2.185-91.679.948-.948 43.228.737 48.168 1.919 13.662 3.271 24.193 16.711 29.466 37.604l2.324 9.209 6.105.299 6.104.297V125.021h-6.5c-6.076 0-6.5.146-6.5 2.253 0 3.789-3.793 15.779-7.384 23.34-5.624 11.842-13.544 18.99-23.616 21.313-2.475.571-14.157 1.485-25.962 2.032-16.648.771-21.644.721-22.271-.222-1.161-1.743 1.484-133.404 2.803-139.522l.497-2.306 36.717.306 36.717.307 8.545 3.06c19.79 7.088 34.03 21.561 45.928 46.68 2.674 5.644 6.1 13.86 7.614 18.261 1.514 4.4 2.854 8.14 2.978 8.311.123.171 3.408-.656 7.299-1.838l7.075-2.149-.497-32.662c-.273-17.964-.758-39.525-1.074-47.912l-.577-15.25H1.984l.298 6.246.297 6.246 9 1.125c12.007 1.501 16.408 2.81 21.243 6.312 7.329 5.309 11.836 13.107 14.674 25.391 4.409 19.083 5.996 62.12 5.262 142.68-.777 85.123-1.851 102.826-7.277 120-4.463 14.125-12.771 21.611-26.491 23.879-3.776.623-9.126 1.617-11.888 2.211l-5.022 1.076v10.834h179v-5.503h-.001zm313.201 7.648c-.912-.58-1.21-2.887-1-7.738l.3-6.91 3.5-.744c1.925-.41 6.06-1.225 9.188-1.809 9.683-1.809 15.247-7.064 18.379-17.359 2.551-8.385 3.675-35.213 3.733-89.088.072-65.889-1.301-81.45-7.963-90.27-3.611-4.781-6.214-6.14-14.976-7.822-4.324-.83-8.874-1.72-10.111-1.978-2.004-.417-2.25-1.07-2.25-5.971 0-4.765.301-5.626 2.25-6.428 2.992-1.23 102.058-21.032 105.223-21.032h2.469l-.484 14.75c-.267 8.112-.692 19.925-.946 26.25l-.462 11.5 3.589-6.472c11.489-20.718 24.373-33.58 41.506-41.431 9.405-4.311 15.681-5.597 27.3-5.597 13.78 0 27.557 4.496 27.557 8.994 0 3.024-24.279 67.176-25.618 67.689-.653.25-5.394-1.562-10.535-4.03-10.722-5.145-20.78-7.66-30.544-7.639-12.16.026-25.743 4.505-31.105 10.257-2.294 2.46-2.305 2.608-2.875 39.349-.564 36.385.648 80.767 2.694 98.617 1.743 15.207 5.784 22.693 14.129 26.18 2.784 1.162 20.398 3.576 26.146 3.582.436 0 .66 3.488.5 7.75l-.292 7.75-74 .238c-40.702.133-74.587-.131-75.302-.588zm147.8-7.562v-5.414l-7.75-.656c-17.875-1.508-22.772-3.303-27.467-10.062-6.803-9.797-8.283-27.875-8.283-101.122v-57.169l2.479-2.639c3.128-3.33 12.906-7.976 19.82-9.417 14.04-2.928 31.988-.398 46.025 6.486 4.029 1.976 7.494 3.424 7.7 3.217.414-.414 23.47-61.34 24.185-63.911.325-1.166-1.003-2.182-4.881-3.734-8.301-3.322-15.499-4.46-24.784-3.922-24.836 1.441-46.877 17.941-62.753 46.976-2.635 4.82-5.365 8.768-6.065 8.773-1.019.007-1.137-5.53-.59-27.55l.685-27.559-2.41.568c-1.326.312-21.311 4.361-44.41 8.997-49.544 9.943-56.43 11.392-57.611 12.122-.489.302-.889 2.089-.889 3.972 0 3.776-.441 3.557 10.816 5.368 15.475 2.489 20.94 10.034 23.248 32.092 3.009 28.761 1.807 140.878-1.675 156.185-1.78 7.826-6.38 15.363-11.01 18.041-1.716.994-7.116 2.586-12 3.539l-8.88 1.734-.303 5.25-.302 5.25H642.08v-5.415z" #ffffffill="#ffffff"/>

</g>

</svg>