<svg width="104" height="72" viewBox="0 0 104 72" fill="none" xmlns="http://www.w3.org/2000/svg">
<path d="M18.5107 33.4096C21.3862 33.4096 24.144 32.2672 26.1774 30.2339C28.2107 28.2006 29.353 25.4428 29.353 22.5672C29.353 19.6916 28.2107 16.9338 26.1774 14.9005C24.144 12.8672 21.3862 11.7249 18.5107 11.7249C15.6351 11.7249 12.8773 12.8672 10.844 14.9005C8.81063 16.9338 7.66831 19.6916 7.66831 22.5672C7.66831 25.4428 8.81063 28.2006 10.844 30.2339C12.8773 32.2672 15.6351 33.4096 18.5107 33.4096ZM0.996094 43.4179C0.996094 41.6483 1.69906 39.9512 2.95034 38.6999C4.20162 37.4486 5.89873 36.7457 7.66831 36.7457H29.353C31.1226 36.7457 32.8197 37.4486 34.071 38.6999C35.3223 39.9512 36.0252 41.6483 36.0252 43.4179C36.0252 43.4179 36.0252 56.7623 18.5107 56.7623C0.996094 56.7623 0.996094 43.4179 0.996094 43.4179Z" fill="#989898"/>
<path d="M80.8703 33.4096C83.7459 33.4096 86.5037 32.2672 88.537 30.2339C90.5703 28.2006 91.7126 25.4428 91.7126 22.5672C91.7126 19.6916 90.5703 16.9338 88.537 14.9005C86.5037 12.8672 83.7459 11.7249 80.8703 11.7249C77.9947 11.7249 75.2369 12.8672 73.2036 14.9005C71.1702 16.9338 70.0279 19.6916 70.0279 22.5672C70.0279 25.4428 71.1702 28.2006 73.2036 30.2339C75.2369 32.2672 77.9947 33.4096 80.8703 33.4096ZM63.3557 43.4179C63.3557 41.6483 64.0587 39.9512 65.31 38.6999C66.5612 37.4486 68.2583 36.7457 70.0279 36.7457H91.7126C93.4822 36.7457 95.1793 37.4486 96.4306 38.6999C97.6819 39.9512 98.3849 41.6483 98.3849 43.4179C98.3849 43.4179 98.3849 56.7623 80.8703 56.7623C63.3557 56.7623 63.3557 43.4179 63.3557 43.4179Z" fill="#989898"/>
<path d="M54.5089 34.9657C57.7149 34.3557 60.6909 32.7964 63.0316 30.4557C66.1041 27.3831 67.8303 23.2159 67.8303 18.8706C67.8303 14.5253 66.1041 10.358 63.0316 7.28548C59.959 4.21292 55.7917 2.48677 51.4464 2.48677C47.1012 2.48677 42.9339 4.21292 39.8613 7.28548C36.7888 10.358 35.0626 14.5253 35.0626 18.8706C35.0626 23.2159 36.7888 27.3831 39.8613 30.4557C42.202 32.7964 45.178 34.3557 48.3839 34.9657H37.3722C34.4626 34.9657 31.6722 36.1216 29.6148 38.179C27.5574 40.2364 26.4016 43.0268 26.4016 45.9364H28.7112C26.4016 45.9364 26.4016 45.9379 26.4016 45.9395L26.4016 45.9431L26.4016 45.9515L26.4018 45.973C26.402 45.9895 26.4023 46.0102 26.4028 46.035C26.4038 46.0845 26.4058 46.1505 26.4093 46.2319C26.4164 46.3945 26.43 46.6189 26.4561 46.8963C26.508 47.4503 26.6099 48.2209 26.8102 49.1365C27.2094 50.9615 28.0094 53.4072 29.6221 55.8646C32.938 60.9173 39.3903 65.5681 51.4464 65.5681C63.5026 65.5681 69.9549 60.9173 73.2707 55.8646C74.8834 53.4072 75.6835 50.9615 76.0827 49.1365C76.283 48.2209 76.3849 47.4503 76.4368 46.8963C76.4628 46.6189 76.4764 46.3945 76.4836 46.2319C76.4871 46.1505 76.4891 46.0845 76.4901 46.035C76.4906 46.0102 76.4909 45.9895 76.4911 45.973L76.4913 45.9515L76.4913 45.9431L76.4913 45.9395C76.4913 45.9379 76.4913 45.9364 74.1817 45.9364H76.4913C76.4913 43.0268 75.3355 40.2364 73.2781 38.179C71.2207 36.1216 68.4303 34.9657 65.5206 34.9657H54.5089Z" fill="#535353" stroke="white" stroke-width="4.61923"/>
</svg>
